<svg xmlns="http://www.w3.org/2000/svg" width="1200" height="460" viewBox="0 0 1200 460">
<rect width="1200" height="460" fill="#071426"/>
<path d="M 2 139 C 250 59, 400 219, 600 139 S 900 59, 1300 109" stroke="#24639A" stroke-width="4" opacity="0.5664396939248451" fill="none" stroke-linecap="round"/>
<path d="M -39 183 C 250 103, 400 263, 600 183 S 900 103, 1300 154" stroke="#153D6B" stroke-width="9" opacity="0.36865042579997276" fill="none" stroke-linecap="round"/>
<path d="M 18 148 C 250 68, 400 228, 600 148 S 900 68, 1300 180" stroke="#24639A" stroke-width="12" opacity="0.38950242727135764" fill="none" stroke-linecap="round"/>
<path d="M 47 268 C 250 188, 400 348, 600 268 S 900 188, 1300 313" stroke="#102E54" stroke-width="5" opacity="0.4414952386509218" fill="none" stroke-linecap="round"/>
<path d="M 20 88 C 250 8, 400 168, 600 88 S 900 8, 1300 73" stroke="#102E54" stroke-width="12" opacity="0.6278412042457983" fill="none" stroke-linecap="round"/>
<path d="M 8 228 C 250 148, 400 308, 600 228 S 900 148, 1300 236" stroke="#102E54" stroke-width="9" opacity="0.546452048498753" fill="none" stroke-linecap="round"/>
<path d="M -14 161 C 250 81, 400 241, 600 161 S 900 81, 1300 189" stroke="#102E54" stroke-width="6" opacity="0.6707198943535508" fill="none" stroke-linecap="round"/>
<path d="M -16 157 C 250 77, 400 237, 600 157 S 900 77, 1300 202" stroke="#153D6B" stroke-width="6" opacity="0.3613630218192077" fill="none" stroke-linecap="round"/>
<path d="M -76 251 C 250 171, 400 331, 600 251 S 900 171, 1300 265" stroke="#0B1F3A" stroke-width="11" opacity="0.46394442682263687" fill="none" stroke-linecap="round"/>
<path d="M 55 138 C 250 58, 400 218, 600 138 S 900 58, 1300 118" stroke="#1C4E80" stroke-width="10" opacity="0.38891048026610386" fill="none" stroke-linecap="round"/>
<path d="M 28 172 C 250 92, 400 252, 600 172 S 900 92, 1300 221" stroke="#102E54" stroke-width="7" opacity="0.544450536995081" fill="none" stroke-linecap="round"/>
<path d="M -51 245 C 250 165, 400 325, 600 245 S 900 165, 1300 289" stroke="#24639A" stroke-width="3" opacity="0.4187144330663761" fill="none" stroke-linecap="round"/>
<path d="M -69 233 C 250 153, 400 313, 600 233 S 900 153, 1300 214" stroke="#24639A" stroke-width="4" opacity="0.6965837110228263" fill="none" stroke-linecap="round"/>
<path d="M -62 218 C 250 138, 400 298, 600 218 S 900 138, 1300 201" stroke="#102E54" stroke-width="11" opacity="0.6958755624601269" fill="none" stroke-linecap="round"/>
<path d="M -13 70 C 250 -10, 400 150, 600 70 S 900 -10, 1300 22" stroke="#0B1F3A" stroke-width="6" opacity="0.5505561378533805" fill="none" stroke-linecap="round"/>
<path d="M -94 188 C 250 108, 400 268, 600 188 S 900 108, 1300 183" stroke="#153D6B" stroke-width="11" opacity="0.3735938630771402" fill="none" stroke-linecap="round"/>
<path d="M 16 51 C 250 -29, 400 131, 600 51 S 900 -29, 1300 23" stroke="#102E54" stroke-width="9" opacity="0.6107845066105244" fill="none" stroke-linecap="round"/>
<path d="M -53 276 C 250 196, 400 356, 600 276 S 900 196, 1300 275" stroke="#153D6B" stroke-width="5" opacity="0.2678347223888159" fill="none" stroke-linecap="round"/>
<path d="M 5 132 C 250 52, 400 212, 600 132 S 900 52, 1300 86" stroke="#24639A" stroke-width="4" opacity="0.5294162476162108" fill="none" stroke-linecap="round"/>
<path d="M -97 113 C 250 33, 400 193, 600 113 S 900 33, 1300 92" stroke="#153D6B" stroke-width="7" opacity="0.6448215013941722" fill="none" stroke-linecap="round"/>
<path d="M -81 217 C 250 137, 400 297, 600 217 S 900 137, 1300 170" stroke="#153D6B" stroke-width="11" opacity="0.43183347275197703" fill="none" stroke-linecap="round"/>
<path d="M -86 150 C 250 70, 400 230, 600 150 S 900 70, 1300 135" stroke="#24639A" stroke-width="9" opacity="0.26026022220351186" fill="none" stroke-linecap="round"/>
<path d="M -12 150 C 250 70, 400 230, 600 150 S 900 70, 1300 132" stroke="#1C4E80" stroke-width="3" opacity="0.4620014186100373" fill="none" stroke-linecap="round"/>
<path d="M 20 223 C 250 143, 400 303, 600 223 S 900 143, 1300 192" stroke="#102E54" stroke-width="8" opacity="0.30239102366721804" fill="none" stroke-linecap="round"/>
<path d="M -5 213 C 250 133, 400 293, 600 213 S 900 133, 1300 200" stroke="#102E54" stroke-width="10" opacity="0.42164649777983976" fill="none" stroke-linecap="round"/>
<path d="M -64 276 C 250 196, 400 356, 600 276 S 900 196, 1300 254" stroke="#0B1F3A" stroke-width="4" opacity="0.35753270459787434" fill="none" stroke-linecap="round"/>
<path d="M -80 132 C 250 52, 400 212, 600 132 S 900 52, 1300 114" stroke="#1C4E80" stroke-width="12" opacity="0.5811985382999799" fill="none" stroke-linecap="round"/>
<path d="M -79 127 C 250 47, 400 207, 600 127 S 900 47, 1300 104" stroke="#0B1F3A" stroke-width="7" opacity="0.5053143561088931" fill="none" stroke-linecap="round"/>
<path d="M0 370 C150 320 220 350 330 330 C430 310 510 360 620 335 C760 300 850 350 1000 320 C1100 300 1160 340 1200 320 L1200 460 L0 460 Z" fill="#081A2F"/>
<path d="M110 460 C125 390 115 340 140 270 C155 330 175 350 165 460 Z" fill="#030B14"/>
<circle cx="1000" cy="110" r="42" fill="#FFE58A" opacity="0.95"/>
<circle cx="1020" cy="92" r="38" fill="#071426" opacity="1"/>
<circle cx="690" cy="226" r="1" fill="#FFE681" opacity="0.2825201624662636"/>
<circle cx="49" cy="203" r="1" fill="#FFF1A8" opacity="0.2680635363763051"/>
<circle cx="864" cy="119" r="1" fill="#FFF1A8" opacity="0.2749873373456674"/>
<circle cx="710" cy="137" r="1" fill="#F8C94A" opacity="0.36474087550466266"/>
<circle cx="496" cy="218" r="1" fill="#FFD84D" opacity="0.5449532006168119"/>
<circle cx="27" cy="126" r="1" fill="#FFD84D" opacity="0.736207063471749"/>
<circle cx="796" cy="194" r="1" fill="#FFE681" opacity="0.355612386468487"/>
<circle cx="539" cy="236" r="1" fill="#F8C94A" opacity="0.7434353666522777"/>
<circle cx="744" cy="144" r="1" fill="#FFD84D" opacity="0.4480438294187422"/>
<circle cx="984" cy="127" r="2" fill="#FFD84D" opacity="0.4045715537691178"/>
<circle cx="1131" cy="22" r="1" fill="#F8C94A" opacity="0.4178363984072999"/>
<circle cx="529" cy="101" r="1" fill="#FFD84D" opacity="0.42298071848131724"/>
<circle cx="401" cy="44" r="1" fill="#FFD84D" opacity="0.6529757664668504"/>
<circle cx="553" cy="255" r="1" fill="#FFE681" opacity="0.3415868124734453"/>
<circle cx="1007" cy="283" r="1" fill="#F8C94A" opacity="0.5020823936576733"/>
<circle cx="948" cy="164" r="2" fill="#FFE681" opacity="0.5376484851185546"/>
<circle cx="251" cy="242" r="2" fill="#F8C94A" opacity="0.3110815701623948"/>
<circle cx="917" cy="219" r="1" fill="#FFF1A8" opacity="0.26795058748247413"/>
<circle cx="494" cy="83" r="1" fill="#F8C94A" opacity="0.7540210733231045"/>
<circle cx="100" cy="238" r="1" fill="#FFE681" opacity="0.4576370950759296"/>
<circle cx="699" cy="77" r="2" fill="#FFE681" opacity="0.6367573394565672"/>
<circle cx="468" cy="287" r="2" fill="#FFD84D" opacity="0.7861684210201613"/>
<circle cx="1041" cy="203" r="2" fill="#FFF1A8" opacity="0.27488452624998716"/>
<circle cx="529" cy="107" r="1" fill="#FFE681" opacity="0.3895831995059672"/>
<circle cx="141" cy="191" r="1" fill="#F8C94A" opacity="0.5173802094515891"/>
<circle cx="108" cy="246" r="1" fill="#FFD84D" opacity="0.6933179934110582"/>
<circle cx="369" cy="283" r="1" fill="#F8C94A" opacity="0.6343405986313024"/>
<circle cx="793" cy="225" r="2" fill="#F8C94A" opacity="0.4610049050826257"/>
<circle cx="925" cy="67" r="1" fill="#FFF1A8" opacity="0.5574150138067349"/>
<circle cx="293" cy="160" r="1" fill="#FFF1A8" opacity="0.42008339219235574"/>
<circle cx="533" cy="185" r="1" fill="#F8C94A" opacity="0.30838596021514064"/>
<circle cx="301" cy="99" r="1" fill="#F8C94A" opacity="0.4651578641159348"/>
<circle cx="250" cy="73" r="1" fill="#FFF1A8" opacity="0.5660067160665803"/>
<circle cx="831" cy="262" r="1" fill="#FFD84D" opacity="0.4022733320728261"/>
<circle cx="951" cy="290" r="2" fill="#FFE681" opacity="0.7188818201188427"/>
<circle cx="668" cy="77" r="1" fill="#FFF1A8" opacity="0.5357263757113662"/>
<circle cx="898" cy="259" r="1" fill="#FFF1A8" opacity="0.5204092208346224"/>
<circle cx="504" cy="249" r="1" fill="#F8C94A" opacity="0.6763538718450439"/>
<circle cx="696" cy="170" r="1" fill="#FFF1A8" opacity="0.5781625597805518"/>
<circle cx="318" cy="40" r="2" fill="#FFF1A8" opacity="0.7266477390643167"/>
<circle cx="331" cy="181" r="1" fill="#FFE681" opacity="0.3401493996989973"/>
<circle cx="164" cy="47" r="1" fill="#FFD84D" opacity="0.3670734821506283"/>
<circle cx="1105" cy="139" r="2" fill="#F8C94A" opacity="0.28984425163773864"/>
<circle cx="753" cy="202" r="1" fill="#F8C94A" opacity="0.35286956703733985"/>
<circle cx="748" cy="132" r="1" fill="#F8C94A" opacity="0.45436037667539214"/>
<circle cx="585" cy="217" r="1" fill="#FFE681" opacity="0.43738113062999906"/>
<circle cx="471" cy="71" r="1" fill="#FFF1A8" opacity="0.7473605382045216"/>
<circle cx="359" cy="124" r="1" fill="#F8C94A" opacity="0.5248430669404439"/>
<circle cx="45" cy="183" r="1" fill="#FFD84D" opacity="0.7683127434699769"/>
<circle cx="852" cy="111" r="2" fill="#F8C94A" opacity="0.38377110410688586"/>
<circle cx="307" cy="246" r="1" fill="#FFD84D" opacity="0.48630184166157114"/>
<circle cx="1067" cy="146" r="1" fill="#FFD84D" opacity="0.7270645328947479"/>
<circle cx="560" cy="43" r="2" fill="#F8C94A" opacity="0.485937460686851"/>
<circle cx="517" cy="242" r="1" fill="#F8C94A" opacity="0.3115940337898499"/>
<circle cx="1026" cy="266" r="2" fill="#FFE681" opacity="0.7216715461528973"/>
<circle cx="1009" cy="111" r="2" fill="#FFF1A8" opacity="0.7474929827070973"/>
<circle cx="267" cy="201" r="2" fill="#FFD84D" opacity="0.7398743662788827"/>
<circle cx="389" cy="154" r="2" fill="#FFF1A8" opacity="0.2841983763198499"/>
<circle cx="640" cy="141" r="2" fill="#FFD84D" opacity="0.4811032912871937"/>
<circle cx="283" cy="116" r="1" fill="#F8C94A" opacity="0.49248464271632053"/>
<circle cx="385" cy="149" r="2" fill="#FFF1A8" opacity="0.33388373285275286"/>
<circle cx="595" cy="217" r="2" fill="#FFE681" opacity="0.5704370781426454"/>
<circle cx="1128" cy="221" r="1" fill="#FFD84D" opacity="0.7666996283283769"/>
<circle cx="981" cy="238" r="1" fill="#FFE681" opacity="0.31171902166612486"/>
<circle cx="399" cy="20" r="1" fill="#FFD84D" opacity="0.5838506476987743"/>
<circle cx="245" cy="135" r="2" fill="#F8C94A" opacity="0.5802685777969396"/>
<circle cx="480" cy="115" r="2" fill="#FFD84D" opacity="0.6435704116168501"/>
<circle cx="139" cy="32" r="1" fill="#FFF1A8" opacity="0.47902411136006656"/>
<circle cx="91" cy="117" r="1" fill="#F8C94A" opacity="0.412133553564698"/>
<circle cx="122" cy="234" r="1" fill="#F8C94A" opacity="0.5314217147615625"/>
<circle cx="517" cy="201" r="1" fill="#F8C94A" opacity="0.7705988757820827"/>
<circle cx="594" cy="34" r="1" fill="#FFE681" opacity="0.5493053550565483"/>
<circle cx="157" cy="105" r="2" fill="#F8C94A" opacity="0.4634748373197033"/>
<circle cx="533" cy="83" r="1" fill="#FFD84D" opacity="0.4117874779817198"/>
<circle cx="337" cy="263" r="1" fill="#FFE681" opacity="0.4352025204991179"/>
<circle cx="906" cy="137" r="2" fill="#FFE681" opacity="0.34399168440124817"/>
<circle cx="73" cy="127" r="1" fill="#FFE681" opacity="0.5831388693727584"/>
<circle cx="672" cy="277" r="1" fill="#FFE681" opacity="0.28950296233999173"/>
<circle cx="580" cy="86" r="1" fill="#FFF1A8" opacity="0.4154752456936658"/>
<circle cx="135" cy="25" r="1" fill="#FFD84D" opacity="0.7720796307325789"/>
<circle cx="666" cy="84" r="1" fill="#FFD84D" opacity="0.707844170322609"/>
<circle cx="105" cy="269" r="1" fill="#FFF1A8" opacity="0.4968136880459866"/>
<circle cx="984" cy="29" r="1" fill="#FFF1A8" opacity="0.3690084013590562"/>
<circle cx="1049" cy="87" r="1" fill="#FFE681" opacity="0.5368363421632001"/>
<circle cx="1032" cy="166" r="2" fill="#FFD84D" opacity="0.49888054449636743"/>
<circle cx="743" cy="170" r="2" fill="#F8C94A" opacity="0.2559657781584401"/>
<circle cx="573" cy="213" r="1" fill="#FFF1A8" opacity="0.45121473618061725"/>
<circle cx="422" cy="44" r="1" fill="#FFD84D" opacity="0.613320033381799"/>
<circle cx="878" cy="126" r="1" fill="#FFF1A8" opacity="0.7454797015930985"/>
<circle cx="465" cy="199" r="1" fill="#F8C94A" opacity="0.41955110684176"/>
<circle cx="190" cy="415" r="6" fill="#FFE681" opacity="0.08"/>
<circle cx="190" cy="415" r="2" fill="#FFE681" opacity="0.35"/>
<circle cx="270" cy="415" r="9" fill="#F8C94A" opacity="0.08"/>
<circle cx="270" cy="415" r="3" fill="#F8C94A" opacity="0.5"/>
<path d="M 261 415 L 279 415" stroke="#F8C94A" stroke-width="1.2" opacity="0.65" fill="none" stroke-linecap="round"/>
<path d="M 270 406 L 270 424" stroke="#F8C94A" stroke-width="1.2" opacity="0.65" fill="none" stroke-linecap="round"/>
<circle cx="290" cy="325" r="12" fill="#F8C94A" opacity="0.08"/>
<circle cx="290" cy="325" r="4" fill="#F8C94A" opacity="0.7"/>
<path d="M 278 325 L 302 325" stroke="#F8C94A" stroke-width="1.2" opacity="0.65" fill="none" stroke-linecap="round"/>
<path d="M 290 313 L 290 337" stroke="#F8C94A" stroke-width="1.2" opacity="0.65" fill="none" stroke-linecap="round"/>
<circle cx="350" cy="325" r="18" fill="#FFE681" opacity="0.08"/>
<circle cx="350" cy="325" r="6" fill="#FFE681" opacity="0.9"/>
<path d="M 332 325 L 368 325" stroke="#FFE681" stroke-width="1.2" opacity="0.65" fill="none" stroke-linecap="round"/>
<path d="M 350 307 L 350 343" stroke="#FFE681" stroke-width="1.2" opacity="0.65" fill="none" stroke-linecap="round"/>
<circle cx="650" cy="355" r="18" fill="#FFF1A8" opacity="0.08"/>
<circle cx="650" cy="355" r="6" fill="#FFF1A8" opacity="0.9"/>
<path d="M 632 355 L 668 355" stroke="#FFF1A8" stroke-width="1.2" opacity="0.65" fill="none" stroke-linecap="round"/>
<path d="M 650 337 L 650 373" stroke="#FFF1A8" stroke-width="1.2" opacity="0.65" fill="none" stroke-linecap="round"/>
<circle cx="650" cy="385" r="12" fill="#FFE681" opacity="0.08"/>
<circle cx="650" cy="385" r="4" fill="#FFE681" opacity="0.7"/>
<path d="M 638 385 L 662 385" stroke="#FFE681" stroke-width="1.2" opacity="0.65" fill="none" stroke-linecap="round"/>
<path d="M 650 373 L 650 397" stroke="#FFE681" stroke-width="1.2" opacity="0.65" fill="none" stroke-linecap="round"/>
<circle cx="650" cy="400" r="6" fill="#FFD84D" opacity="0.08"/>
<circle cx="650" cy="400" r="2" fill="#FFD84D" opacity="0.35"/>
<circle cx="730" cy="340" r="6" fill="#FFD84D" opacity="0.08"/>
<circle cx="730" cy="340" r="2" fill="#FFD84D" opacity="0.35"/>
<circle cx="730" cy="355" r="6" fill="#FFD84D" opacity="0.08"/>
<circle cx="730" cy="355" r="2" fill="#FFD84D" opacity="0.35"/>
<circle cx="750" cy="415" r="12" fill="#FFD84D" opacity="0.08"/>
<circle cx="750" cy="415" r="4" fill="#FFD84D" opacity="0.7"/>
<path d="M 738 415 L 762 415" stroke="#FFD84D" stroke-width="1.2" opacity="0.65" fill="none" stroke-linecap="round"/>
<path d="M 750 403 L 750 427" stroke="#FFD84D" stroke-width="1.2" opacity="0.65" fill="none" stroke-linecap="round"/>
<circle cx="830" cy="340" r="9" fill="#FFE681" opacity="0.08"/>
<circle cx="830" cy="340" r="3" fill="#FFE681" opacity="0.5"/>
<circle cx="830" cy="355" r="6" fill="#FFD84D" opacity="0.08"/>
<circle cx="830" cy="355" r="2" fill="#FFD84D" opacity="0.35"/>
<circle cx="890" cy="340" r="6" fill="#FFF1A8" opacity="0.08"/>
<circle cx="890" cy="340" r="2" fill="#FFF1A8" opacity="0.35"/>
<circle cx="910" cy="370" r="6" fill="#F8C94A" opacity="0.08"/>
<circle cx="910" cy="370" r="2" fill="#F8C94A" opacity="0.35"/>
<circle cx="910" cy="385" r="6" fill="#F8C94A" opacity="0.08"/>
<circle cx="910" cy="385" r="2" fill="#F8C94A" opacity="0.35"/>
<circle cx="930" cy="325" r="9" fill="#FFD84D" opacity="0.08"/>
<circle cx="930" cy="325" r="3" fill="#FFD84D" opacity="0.5"/>
<circle cx="1070" cy="340" r="18" fill="#FFF1A8" opacity="0.08"/>
<circle cx="1070" cy="340" r="6" fill="#FFF1A8" opacity="0.9"/>
<path d="M 1052 340 L 1088 340" stroke="#FFF1A8" stroke-width="1.2" opacity="0.65" fill="none" stroke-linecap="round"/>
<path d="M 1070 322 L 1070 358" stroke="#FFF1A8" stroke-width="1.2" opacity="0.65" fill="none" stroke-linecap="round"/>
<circle cx="1070" cy="355" r="12" fill="#FFD84D" opacity="0.08"/>
<circle cx="1070" cy="355" r="4" fill="#FFD84D" opacity="0.7"/>
<path d="M 1058 355 L 1082 355" stroke="#FFD84D" stroke-width="1.2" opacity="0.65" fill="none" stroke-linecap="round"/>
<path d="M 1070 343 L 1070 367" stroke="#FFD84D" stroke-width="1.2" opacity="0.65" fill="none" stroke-linecap="round"/>
<circle cx="1070" cy="370" r="6" fill="#FFE681" opacity="0.08"/>
<circle cx="1070" cy="370" r="2" fill="#FFE681" opacity="0.35"/>
<circle cx="1090" cy="385" r="9" fill="#FFE681" opacity="0.08"/>
<circle cx="1090" cy="385" r="3" fill="#FFE681" opacity="0.5"/>
<text x="60" y="55" fill="#FFE681" font-size="24" font-family="monospace" font-weight="bold">PsyCube250 · Starry Night</text>
</svg>